<?xml version="1.0" standalone="no"?>
<!DOCTYPE svg PUBLIC "-//W3C//DTD SVG 20010904//EN"
 "http://www.w3.org/TR/2001/REC-SVG-20010904/DTD/svg10.dtd">
<svg version="1.0" xmlns="http://www.w3.org/2000/svg"
 width="756.000000pt" height="756.000000pt" viewBox="0 0 756.000000 756.000000"
 preserveAspectRatio="xMidYMid meet">
<metadata>
Created by potrace 1.14, written by Peter Selinger 2001-2017
</metadata>
<g transform="translate(0.000000,756.000000) scale(0.100000,-0.100000)"
fill="#000000" stroke="none">
<path d="M1786 7509 c-32 -25 -34 -69 -7 -131 20 -47 66 -194 76 -245 9 -43
-9 -95 -57 -166 -21 -31 -61 -107 -88 -167 -47 -103 -50 -115 -50 -192 0 -83
25 -209 54 -280 21 -50 21 -161 0 -182 -23 -24 -66 -19 -110 11 -26 17 -57 28
-90 31 -46 4 -53 2 -72 -23 -39 -50 -29 -93 32 -135 74 -50 193 -242 216 -348
6 -26 22 -75 36 -110 14 -35 32 -107 40 -160 8 -53 21 -119 30 -145 15 -45 15
-52 -1 -86 -16 -36 -56 -75 -102 -99 -28 -15 -101 -2 -213 40 -82 30 -93 32
-305 39 -324 12 -348 15 -438 45 -100 33 -146 56 -214 106 -29 21 -56 38 -62
38 -5 0 -35 14 -66 30 -31 17 -66 30 -76 30 -32 0 -69 -45 -69 -83 0 -39 26
-66 113 -118 73 -43 213 -177 256 -246 32 -51 54 -107 132 -328 22 -60 49
-132 60 -160 26 -61 128 -215 179 -270 93 -100 92 -117 -2 -133 -40 -7 -86
-13 -103 -14 -23 -2 -31 -8 -33 -27 -5 -32 28 -91 51 -91 9 0 44 -11 77 -25
46 -20 77 -25 138 -25 51 0 94 -6 118 -16 104 -43 202 -96 232 -123 41 -38
102 -167 102 -215 0 -43 -5 -45 -132 -80 -80 -22 -109 -25 -166 -20 -62 6 -72
4 -91 -15 -26 -26 -28 -80 -3 -110 19 -23 146 -71 190 -71 15 0 53 -9 85 -20
31 -11 67 -20 79 -20 13 0 37 -8 54 -19 33 -20 136 -59 254 -96 179 -56 399
-173 558 -296 43 -33 319 -109 397 -109 57 0 79 -16 58 -43 -6 -6 -46 -82 -90
-167 -90 -174 -139 -259 -193 -340 -97 -144 -270 -478 -270 -521 0 -8 -14 -55
-30 -105 -17 -49 -37 -117 -45 -151 -8 -35 -30 -93 -49 -130 -18 -38 -37 -79
-41 -93 -4 -14 -39 -88 -78 -165 -38 -77 -91 -183 -117 -235 -101 -201 -212
-321 -354 -384 -42 -19 -60 -34 -80 -68 -32 -55 -33 -89 -3 -123 25 -30 101
-43 182 -30 43 6 56 15 134 95 80 82 118 129 250 300 61 80 116 190 143 290
11 41 31 95 45 120 37 66 131 275 158 350 12 36 39 101 60 145 20 44 55 134
77 200 22 66 49 133 60 148 12 16 34 66 50 110 16 45 63 147 105 227 42 80 88
168 101 195 30 61 154 255 164 255 4 0 24 -33 44 -72 65 -124 221 -259 436
-376 81 -44 265 -102 403 -127 89 -16 125 -26 200 -54 169 -64 223 -87 250
-107 17 -12 52 -32 78 -43 51 -22 102 -70 146 -137 15 -23 42 -56 60 -74 18
-19 43 -50 56 -71 23 -36 135 -109 169 -109 19 0 46 38 46 65 0 59 -24 100
-103 179 -81 80 -167 182 -167 197 0 5 -26 35 -58 67 -60 59 -100 136 -88 167
12 33 70 45 208 45 131 0 163 -4 343 -34 59 -10 156 -16 282 -16 l192 0 46
-40 c54 -46 100 -53 130 -20 33 36 25 82 -23 134 -38 41 -42 51 -42 96 0 64
20 113 56 137 31 20 143 63 254 97 41 13 115 43 165 66 104 49 211 75 249 60
14 -5 73 -16 133 -24 59 -9 131 -22 159 -30 62 -16 99 -11 119 17 16 22 19 64
9 92 -14 35 -139 75 -284 91 -36 3 -91 17 -122 30 -32 13 -64 24 -72 24 -27 0
-191 92 -221 124 -52 57 -231 164 -300 180 -50 12 -212 105 -242 138 -15 17
-53 55 -83 84 -54 52 -55 54 -40 80 8 15 42 47 75 71 70 51 288 159 354 175
53 13 209 74 226 88 32 27 195 82 257 87 74 6 230 -11 291 -33 22 -8 59 -14
83 -14 34 0 47 5 63 26 48 61 12 123 -98 164 -87 32 -95 45 -99 150 -4 85 -3
91 37 175 22 48 58 105 78 127 49 52 173 110 317 148 124 33 159 54 164 95 9
74 -15 94 -128 106 -41 5 -109 16 -150 24 -41 8 -148 21 -237 30 -194 17 -208
20 -250 52 -40 29 -42 58 -8 109 14 20 25 50 25 66 0 34 -39 78 -71 78 -20 0
-80 -34 -187 -107 -71 -49 -180 -104 -247 -124 -33 -10 -94 -30 -135 -45 -72
-26 -87 -27 -399 -37 -310 -10 -325 -9 -338 8 -35 49 -3 363 46 435 38 57 184
370 205 442 9 29 35 89 59 133 37 69 52 86 106 123 35 23 70 42 78 42 23 0 90
38 97 55 12 31 6 73 -13 96 -18 23 -27 24 -168 29 -132 5 -153 8 -198 30 -44
22 -52 31 -70 80 -18 49 -20 77 -18 270 3 316 23 481 73 622 28 80 26 132 -5
163 -58 59 -112 13 -164 -140 -36 -103 -41 -112 -87 -147 -26 -20 -64 -45 -84
-55 -19 -10 -52 -29 -72 -41 -20 -13 -41 -21 -46 -18 -6 3 -2 30 9 62 11 32
19 70 19 85 0 27 -22 59 -40 59 -22 0 -103 -65 -130 -105 -43 -63 -199 -165
-252 -165 -49 0 -74 13 -92 48 -20 40 -46 164 -46 224 0 90 -45 142 -103 119
-40 -16 -54 -59 -67 -212 -11 -120 -16 -143 -50 -219 -21 -47 -42 -102 -48
-123 -6 -21 -24 -59 -40 -85 -16 -26 -38 -69 -48 -97 -10 -27 -23 -59 -30 -70
-6 -11 -17 -37 -24 -57 -14 -44 -98 -194 -146 -260 -39 -52 -129 -239 -150
-309 -16 -54 -84 -143 -125 -164 -33 -18 -133 -20 -178 -4 -25 9 -38 25 -65
83 -19 39 -39 94 -44 121 -6 28 -34 101 -61 163 -28 61 -51 119 -51 127 0 9
-30 73 -66 142 -66 127 -66 127 -59 189 3 35 13 87 21 116 19 71 18 85 -7 99
-19 10 -26 6 -59 -27 -42 -45 -132 -109 -152 -109 -7 0 -31 29 -53 64 -45 73
-144 174 -290 295 -55 46 -110 98 -123 116 -13 17 -42 40 -65 51 -89 43 -128
66 -146 85 -10 10 -30 60 -46 109 -47 153 -56 174 -90 210 -37 40 -61 44 -99
14z m379 -629 c28 -26 79 -71 115 -100 102 -84 193 -179 245 -258 59 -90 95
-116 185 -136 20 -4 38 -31 91 -133 37 -71 70 -141 73 -157 4 -16 28 -74 53
-129 25 -55 56 -138 68 -186 59 -219 67 -242 111 -290 l42 -46 97 -3 c138 -5
177 2 229 46 25 20 57 45 71 56 41 28 118 153 149 242 37 104 91 211 157 309
61 91 176 318 194 385 4 14 20 45 35 70 16 25 37 72 48 106 23 71 49 124 61
124 4 0 16 -9 25 -19 10 -11 40 -29 68 -41 70 -30 161 -25 238 14 51 25 66 27
185 29 141 3 133 0 282 89 l33 20 -4 -129 c-2 -70 -7 -173 -11 -228 -6 -81 -3
-118 13 -197 31 -147 57 -196 131 -245 33 -23 74 -44 91 -48 40 -9 44 -18 19
-49 -24 -30 -105 -200 -115 -242 -11 -43 -148 -343 -185 -404 -32 -54 -42 -82
-65 -183 -22 -94 -25 -131 -22 -232 3 -117 4 -122 38 -179 63 -106 45 -101
393 -99 348 3 439 13 557 58 47 18 101 36 120 40 19 4 78 29 131 57 l95 49 71
-70 c39 -39 86 -77 105 -85 31 -13 124 -28 263 -42 60 -6 60 -6 35 -23 -13 -9
-53 -45 -88 -81 -49 -50 -75 -88 -112 -165 -66 -137 -74 -171 -66 -287 l6 -98
-48 0 c-100 0 -206 -30 -332 -94 -63 -33 -187 -81 -240 -94 -66 -16 -268 -114
-346 -167 -92 -63 -200 -164 -213 -198 -24 -63 25 -155 148 -277 76 -76 118
-108 200 -155 57 -32 123 -64 146 -70 66 -20 195 -96 240 -141 22 -22 55 -49
73 -60 17 -10 32 -22 32 -26 0 -12 -111 -65 -171 -81 -104 -29 -234 -81 -285
-114 -69 -44 -104 -98 -129 -196 l-21 -82 -199 1 c-158 0 -215 4 -270 19 -104
26 -400 33 -477 11 -111 -33 -180 -105 -180 -190 0 -56 5 -56 -128 -6 -118 44
-239 80 -270 80 -14 0 -84 16 -155 35 -183 49 -335 131 -493 263 -47 40 -62
62 -127 198 l-74 153 -43 11 c-24 6 -70 19 -103 29 -43 14 -80 18 -130 14 -59
-3 -91 2 -205 34 -122 35 -144 45 -221 99 -156 112 -345 207 -509 259 -132 42
-223 75 -236 86 -10 8 -6 20 21 55 72 94 71 181 -5 338 -64 134 -119 186 -275
260 -105 50 -111 55 -133 102 -33 69 -117 191 -167 244 -66 69 -131 173 -161
258 -15 42 -51 143 -81 223 -29 80 -53 148 -53 151 0 13 95 20 314 24 l228 5
102 -35 c119 -42 219 -59 263 -47 45 13 66 26 134 83 103 85 146 220 104 320
-8 20 -21 80 -29 135 -8 55 -22 120 -32 144 -9 24 -25 76 -35 114 -11 39 -39
111 -63 162 l-45 92 48 34 c55 40 78 82 92 170 13 75 6 148 -21 219 -26 72
-50 175 -50 222 0 46 62 192 122 286 70 109 62 105 127 69 31 -17 79 -52 106
-79z"/>
</g>
</svg>
